<?xml version="1.0" encoding="UTF-8" standalone="no"?>
<svg
   xmlns:dc="http://purl.org/dc/elements/1.1/"
   xmlns:cc="http://creativecommons.org/ns#"
   xmlns:rdf="http://www.w3.org/1999/02/22-rdf-syntax-ns#"
   xmlns:svg="http://www.w3.org/2000/svg"
   xmlns="http://www.w3.org/2000/svg"
   xmlns:sodipodi="http://sodipodi.sourceforge.net/DTD/sodipodi-0.dtd"
   xmlns:inkscape="http://www.inkscape.org/namespaces/inkscape"
   width="20"
   height="20"
   viewBox="0 0 20 20"
   version="1.1"
   id="svg26"
   sodipodi:docname="actionIcon.svg"
   inkscape:version="0.92.3 (2405546, 2018-03-11)"
   inkscape:export-filename="C:\Users\mdono\Documents\GitHub\sbzdeck\actionIcon.png"
   inkscape:export-xdpi="96"
   inkscape:export-ydpi="96">
  <metadata
     id="metadata32">
    <rdf:RDF>
      <cc:Work
         rdf:about="">
        <dc:format>image/svg+xml</dc:format>
        <dc:type
           rdf:resource="http://purl.org/dc/dcmitype/StillImage" />
        <dc:title></dc:title>
      </cc:Work>
    </rdf:RDF>
  </metadata>
  <defs
     id="defs30" />
  <sodipodi:namedview
     pagecolor="#ffffff"
     bordercolor="#666666"
     borderopacity="1"
     objecttolerance="10"
     gridtolerance="10"
     guidetolerance="10"
     inkscape:pageopacity="0"
     inkscape:pageshadow="2"
     inkscape:window-width="2560"
     inkscape:window-height="1377"
     id="namedview28"
     showgrid="false"
     fit-margin-top="0"
     fit-margin-left="0"
     fit-margin-right="0"
     fit-margin-bottom="0"
     inkscape:zoom="9.8333333"
     inkscape:cx="7.5280313"
     inkscape:cy="10"
     inkscape:window-x="-8"
     inkscape:window-y="-8"
     inkscape:window-maximized="1"
     inkscape:current-layer="svg26" />
  <path
     d="M -5,-2 H 19 V 22 H -5 Z"
     id="path22"
     inkscape:connector-curvature="0"
     style="fill:none" />
  <path
     d="M 15,0 H 5 C 3.9,0 3,0.9 3,2 v 16 c 0,1.1 0.9,1.99 2,1.99 L 15,20 c 1.1,0 2,-0.9 2,-2 V 2 C 17,0.9 16.1,0 15,0 Z m -5,2 c 1.1,0 2,0.9 2,2 0,1.1 -0.9,2 -2,2 C 8.89,6 8,5.1 8,4 8,2.9 8.89,2 10,2 Z m 0,16 C 7.24,18 5,15.76 5,13 5,10.24 7.24,8 10,8 c 2.76,0 5,2.24 5,5 0,2.76 -2.24,5 -5,5 z m 0,-8 c -1.66,0 -3,1.34 -3,3 0,1.66 1.34,3 3,3 1.66,0 3,-1.34 3,-3 0,-1.66 -1.34,-3 -3,-3 z"
     id="path24"
     inkscape:connector-curvature="0"
     style="stroke:none;fill:#d1d1d6;fill-opacity:1" />
</svg>
