<?xml version="1.0" encoding="UTF-8" standalone="no"?>
<!-- Created with Inkscape (http://www.inkscape.org/) -->

<svg
   xmlns:dc="http://purl.org/dc/elements/1.1/"
   xmlns:cc="http://creativecommons.org/ns#"
   xmlns:rdf="http://www.w3.org/1999/02/22-rdf-syntax-ns#"
   xmlns:svg="http://www.w3.org/2000/svg"
   xmlns="http://www.w3.org/2000/svg"
   xmlns:sodipodi="http://sodipodi.sourceforge.net/DTD/sodipodi-0.dtd"
   xmlns:inkscape="http://www.inkscape.org/namespaces/inkscape"
   width="30pt"
   height="30pt"
   viewBox="0 0 10.583334 10.583334"
   version="1.1"
   id="svg8"
   inkscape:version="0.92.3 (2405546, 2018-03-11)"
   sodipodi:docname="categoryIcon.svg"
   inkscape:export-filename="C:\Users\mdono\Documents\GitHub\sbzdeck\categoryIcon.png"
   inkscape:export-xdpi="67.199997"
   inkscape:export-ydpi="67.199997">
  <defs
     id="defs2" />
  <sodipodi:namedview
     id="base"
     pagecolor="#ffffff"
     bordercolor="#666666"
     borderopacity="1.0"
     inkscape:pageopacity="0.0"
     inkscape:pageshadow="2"
     inkscape:zoom="7.1417785"
     inkscape:cx="9.3589486"
     inkscape:cy="18.258393"
     inkscape:document-units="mm"
     inkscape:current-layer="layer1"
     showgrid="false"
     fit-margin-top="0"
     fit-margin-left="0"
     fit-margin-right="0"
     fit-margin-bottom="0"
     units="pt"
     inkscape:window-width="1146"
     inkscape:window-height="573"
     inkscape:window-x="1072"
     inkscape:window-y="309"
     inkscape:window-maximized="0" />
  <metadata
     id="metadata5">
    <rdf:RDF>
      <cc:Work
         rdf:about="">
        <dc:format>image/svg+xml</dc:format>
        <dc:type
           rdf:resource="http://purl.org/dc/dcmitype/StillImage" />
        <dc:title></dc:title>
      </cc:Work>
    </rdf:RDF>
  </metadata>
  <g
     inkscape:label="Layer 1"
     inkscape:groupmode="layer"
     id="layer1"
     transform="translate(-24.960208,-55.530001)">
    <g
       aria-label="SB"
       style="font-style:normal;font-variant:normal;font-weight:normal;font-stretch:normal;font-size:11.72871494px;line-height:1.25;font-family:Hack;-inkscape-font-specification:Hack;letter-spacing:0px;word-spacing:0px;fill:#d1d1d6;fill-opacity:1;stroke:none;stroke-width:0.31577316"
       id="text3715"
       transform="matrix(0.92857122,0,0,0.92857122,2.1608553,4.5979297)">
      <path
         d="m 29.418037,62.409169 q 0,0.459681 -0.165699,0.823149 -0.165699,0.363468 -0.465025,0.620033 -0.299327,0.251221 -0.710901,0.384849 -0.411574,0.133628 -0.89798,0.133628 -0.331397,0 -0.625378,-0.06414 -0.293982,-0.0588 -0.523822,-0.144318 -0.22984,-0.08552 -0.390194,-0.171044 -0.155008,-0.09087 -0.213804,-0.149663 -0.0588,-0.06414 -0.08552,-0.144318 -0.02673,-0.08552 -0.02673,-0.20846 0,-0.09087 0.01069,-0.149663 0.01069,-0.0588 0.02672,-0.09621 0.02138,-0.03742 0.04811,-0.04811 0.03207,-0.01604 0.06414,-0.01604 0.07483,0 0.208459,0.09621 0.138973,0.09087 0.352778,0.203115 0.21915,0.106902 0.518476,0.203114 0.304672,0.09087 0.705556,0.09087 0.326052,0 0.598653,-0.08552 0.272601,-0.09087 0.47037,-0.256566 0.19777,-0.165699 0.304672,-0.406229 0.112248,-0.245875 0.112248,-0.555892 0,-0.320707 -0.138973,-0.550547 -0.138973,-0.22984 -0.368814,-0.400884 -0.224494,-0.176389 -0.513131,-0.315362 -0.288636,-0.144318 -0.593308,-0.283291 -0.299326,-0.144319 -0.587963,-0.310017 -0.288636,-0.165699 -0.518476,-0.384849 -0.224495,-0.224495 -0.363468,-0.523821 -0.138973,-0.299327 -0.138973,-0.710901 0,-0.400884 0.144318,-0.716246 0.144318,-0.320707 0.406229,-0.539857 0.261911,-0.224495 0.625379,-0.342087 0.368813,-0.117593 0.807112,-0.117593 0.21915,0 0.443645,0.04276 0.224495,0.04276 0.422264,0.112248 0.203115,0.06414 0.358123,0.149663 0.160354,0.08018 0.20846,0.133628 0.05345,0.04811 0.06414,0.07483 0.01604,0.02138 0.02673,0.0588 0.01069,0.03742 0.01603,0.09087 0.0053,0.04811 0.0053,0.122938 0,0.06949 -0.01069,0.128282 -0.0053,0.05345 -0.02138,0.09621 -0.01604,0.03742 -0.04276,0.0588 -0.02138,0.02138 -0.05345,0.02138 -0.0588,0 -0.181734,-0.07483 -0.117593,-0.08018 -0.299327,-0.176389 -0.181734,-0.09621 -0.432955,-0.171044 -0.25122,-0.08018 -0.571927,-0.08018 -0.315362,0 -0.550547,0.08552 -0.235185,0.08552 -0.390194,0.235185 -0.155008,0.144318 -0.235185,0.342088 -0.07483,0.197769 -0.07483,0.416919 0,0.320707 0.138973,0.550547 0.138973,0.22984 0.368813,0.406229 0.229841,0.176389 0.518477,0.320707 0.293981,0.138973 0.593308,0.283291 0.304672,0.138973 0.593308,0.304672 0.293981,0.160354 0.523822,0.384849 0.22984,0.219149 0.368813,0.518476 0.138973,0.293981 0.138973,0.70021 z"
         style="font-style:normal;font-variant:normal;font-weight:300;font-stretch:normal;font-size:10.94680119px;font-family:Calibri;-inkscape-font-specification:'Calibri Light';fill:#d1d1d6;fill-opacity:1;stroke-width:0.31577316"
         id="path4522"
         inkscape:connector-curvature="0" />
      <path
         d="m 35.190764,62.345028 q 0,0.304672 -0.07483,0.566582 -0.06949,0.261911 -0.203114,0.475716 -0.133628,0.213805 -0.326052,0.379503 -0.192424,0.165699 -0.4383,0.283292 -0.24053,0.112247 -0.523821,0.171043 -0.283292,0.0588 -0.65745,0.0588 h -1.790614 q -0.09621,0 -0.19777,-0.06949 -0.101557,-0.07483 -0.101557,-0.267256 v -6.243097 q 0,-0.192425 0.101557,-0.261911 0.101558,-0.07483 0.19777,-0.07483 h 1.485942 q 0.603999,0 0.978157,0.122938 0.374158,0.122938 0.614688,0.352778 0.245876,0.224495 0.363469,0.550547 0.122937,0.320707 0.122937,0.716246 0,0.245875 -0.0588,0.47037 -0.05345,0.224495 -0.165699,0.416919 -0.112247,0.192424 -0.283291,0.347433 -0.165699,0.155008 -0.395539,0.261911 0.277946,0.05345 0.523822,0.203114 0.245875,0.144318 0.427609,0.368813 0.187079,0.224495 0.293982,0.523822 0.106902,0.293981 0.106902,0.646759 z m -1.143855,-3.19638 q 0,-0.272601 -0.07483,-0.491751 -0.07483,-0.224495 -0.24053,-0.379504 -0.160354,-0.160353 -0.422264,-0.245875 -0.261911,-0.08552 -0.700211,-0.08552 H 31.52936 v 2.480135 h 1.186617 q 0.390193,0 0.630723,-0.101558 0.240531,-0.106902 0.395539,-0.283291 0.155009,-0.176389 0.22984,-0.406229 0.07483,-0.235185 0.07483,-0.486405 z m 0.44899,3.249831 q 0,-0.342087 -0.112248,-0.603998 -0.106902,-0.261911 -0.320707,-0.4383 -0.208459,-0.176389 -0.518476,-0.267256 -0.310017,-0.09087 -0.769697,-0.09087 h -1.245413 v 2.699285 h 1.507324 q 0.331397,0 0.582617,-0.08018 0.256566,-0.08552 0.44899,-0.245875 0.19777,-0.165699 0.310017,-0.406229 0.117593,-0.245876 0.117593,-0.566583 z"
         style="font-style:normal;font-variant:normal;font-weight:300;font-stretch:normal;font-size:10.94680119px;font-family:Calibri;-inkscape-font-specification:'Calibri Light';fill:#d1d1d6;fill-opacity:1;stroke-width:0.31577316"
         id="path4524"
         inkscape:connector-curvature="0" />
    </g>
    <rect
       style="fill:none;fill-opacity:1;stroke:#d1d1d6;stroke-width:0.35277778;stroke-miterlimit:4;stroke-dasharray:none;stroke-opacity:1"
       id="rect4527"
       height="10.230556"
       x="25.136597"
       y="55.70639"
       width="10.230556"
       rx="0.69937772"
       ry="0.69937772" />
  </g>
</svg>
